# xmcd CD database file
#
# Track frame offsets:
#	150
#	14188
#	27511
#	40357
#	53090
#	65474
#	79948
#	93405
#	116935
#	141571
#	158265
#	184072
#	197196
#	210698
#	225497
#
# Disc length: 3166 seconds
#
# Revision: 6
# Processed by: cddbd v1.5.2PL0 Copyright (c) Steve Scherf et al.
# Submitted via: CDex 1.51
#
DISCID=d80c5c0f
DTITLE=Chet Baker - Vol.02 - My Funny Valentine
DYEAR=1900
DGENRE=Jazz
TTITLE0=I'm Beginning To See The Light
TTITLE1=I May Be Wrong
TTITLE2=The Nearness Of You
TTITLE3=Tea For Two
TTITLE4=Freeway
TTITLE5=My Old Flame
TTITLE6=Five Brothers
TTITLE7=My Funny Valentine
TTITLE8=Come Out Wherever You Are
TTITLE9=What's New
TTITLE10=Half Nelson
TTITLE11=All the Thing You Are
TTITLE12=Bea's Flat
TTITLE13=Moon Love
TTITLE14=Happy Little Sunbeam
EXTD=
EXTT0=
EXTT1=
EXTT2=
EXTT3=
EXTT4=
EXTT5=
EXTT6=
EXTT7=
EXTT8=
EXTT9=
EXTT10=
EXTT11=
EXTT12=
EXTT13=
EXTT14=
PLAYORDER=
